<svg xmlns="http://www.w3.org/2000/svg" viewBox="-30 -398 1613 851" width="1613" height="851" font-family="ui-monospace, SFMono-Regular, Menlo, Consolas, monospace">
<rect x="-30" y="-398" width="1613" height="851" rx="14" fill="#FFFFFF"/>
<text x="0" y="-368" font-size="15" font-weight="700" fill="#111827">Gold core · fact constellation: 5 facts sharing 8 dimensions</text>
<line x1="203.6" y1="-33.5" x2="657.7" y2="-266.5" stroke="#6B7280" stroke-opacity="0.55" stroke-width="1.3"/>
<line x1="229.3" y1="-33.5" x2="868.0" y2="-268.7" stroke="#6B7280" stroke-opacity="0.55" stroke-width="1.3"/>
<line x1="150.3" y1="33.5" x2="233.1" y2="266.5" stroke="#6B7280" stroke-opacity="0.55" stroke-width="1.3"/>
<line x1="491.5" y1="-33.5" x2="693.9" y2="-266.5" stroke="#6B7280" stroke-opacity="0.55" stroke-width="1.3"/>
<line x1="465.8" y1="-33.5" x2="489.6" y2="-266.5" stroke="#6B7280" stroke-opacity="0.55" stroke-width="1.3"/>
<line x1="489.5" y1="33.5" x2="678.0" y2="266.5" stroke="#6B7280" stroke-opacity="0.55" stroke-width="1.3"/>
<line x1="438.1" y1="33.5" x2="269.3" y2="266.5" stroke="#6B7280" stroke-opacity="0.55" stroke-width="1.3"/>
<line x1="517.2" y1="-33.5" x2="898.2" y2="-266.5" stroke="#6B7280" stroke-opacity="0.55" stroke-width="1.3"/>
<line x1="463.8" y1="33.5" x2="473.6" y2="266.5" stroke="#0284C7" stroke-opacity="0.55" stroke-width="1.3"/>
<line x1="759.2" y1="-33.5" x2="727.6" y2="-266.5" stroke="#6B7280" stroke-opacity="0.55" stroke-width="1.3"/>
<line x1="733.5" y1="-33.5" x2="523.3" y2="-266.5" stroke="#DC2626" stroke-opacity="0.55" stroke-width="1.3" stroke-dasharray="5 4"/>
<line x1="757.2" y1="33.5" x2="711.6" y2="266.5" stroke="#6B7280" stroke-opacity="0.55" stroke-width="1.3"/>
<line x1="879.4" y1="0.0" x2="949.4" y2="0.0" stroke="#D97706" stroke-opacity="0.55" stroke-width="1.3"/>
<line x1="782.9" y1="33.5" x2="915.9" y2="266.5" stroke="#6B7280" stroke-opacity="0.55" stroke-width="1.3"/>
<line x1="784.9" y1="-33.5" x2="931.9" y2="-266.5" stroke="#6B7280" stroke-opacity="0.55" stroke-width="1.3"/>
<line x1="1052.8" y1="-33.5" x2="764.5" y2="-266.5" stroke="#6B7280" stroke-opacity="0.55" stroke-width="1.3"/>
<line x1="1076.5" y1="33.5" x2="952.8" y2="266.5" stroke="#6B7280" stroke-opacity="0.55" stroke-width="1.3"/>
<line x1="1078.5" y1="-33.5" x2="968.8" y2="-266.5" stroke="#6B7280" stroke-opacity="0.55" stroke-width="1.3"/>
<line x1="1425.1" y1="33.5" x2="1382.1" y2="266.5" stroke="#0284C7" stroke-opacity="0.55" stroke-width="1.3"/>
<line x1="1352.2" y1="-33.5" x2="802.1" y2="-266.5" stroke="#6B7280" stroke-opacity="0.55" stroke-width="1.3"/>
<line x1="1377.9" y1="-33.5" x2="1006.4" y2="-266.5" stroke="#6B7280" stroke-opacity="0.55" stroke-width="1.3"/>
<rect x="0.0" y="-33.5" width="276.7" height="67.0" rx="8" fill="#FFFBEB" stroke="#D97706" stroke-width="1.2"/>
<path d="M0.0,6.5 v-32 a8,8 0 0 1 8,-8 h260.7 a8,8 0 0 1 8,8 v32z" fill="#FDE68A" stroke="#D97706" stroke-width="1.2"/>
<text x="12.0" y="-15.5" font-size="13" font-weight="700" fill="#111827">fct_digital_session</text>
<text x="12.0" y="-0.5" font-size="10.5" fill="#374151">per app or web session · 1,786,403 rows</text>
<text x="12.0" y="21.5" font-size="9.5" font-weight="700" fill="#D97706">PK</text>
<text x="40.0" y="21.5" font-size="12" font-weight="700" fill="#1F2937">session_id</text>
<rect x="346.7" y="-33.5" width="231.4" height="67.0" rx="8" fill="#FFFBEB" stroke="#D97706" stroke-width="1.2"/>
<path d="M346.7,6.5 v-32 a8,8 0 0 1 8,-8 h215.4 a8,8 0 0 1 8,8 v32z" fill="#FDE68A" stroke="#D97706" stroke-width="1.2"/>
<text x="358.7" y="-15.5" font-size="13" font-weight="700" fill="#111827">fct_transaction</text>
<text x="358.7" y="-0.5" font-size="10.5" fill="#374151">per transaction · 4,294,318 rows</text>
<text x="358.7" y="21.5" font-size="9.5" font-weight="700" fill="#D97706">PK</text>
<text x="386.7" y="21.5" font-size="12" font-weight="700" fill="#1F2937">transaction_id</text>
<rect x="648.1" y="-33.5" width="231.4" height="67.0" rx="8" fill="#FFFBEB" stroke="#D97706" stroke-width="1.2"/>
<path d="M648.1,6.5 v-32 a8,8 0 0 1 8,-8 h215.4 a8,8 0 0 1 8,8 v32z" fill="#FDE68A" stroke="#D97706" stroke-width="1.2"/>
<text x="660.1" y="-15.5" font-size="13" font-weight="700" fill="#111827">fct_complaint</text>
<text x="660.1" y="-0.5" font-size="10.5" fill="#374151">per complaint case · 65,191 rows</text>
<text x="660.1" y="21.5" font-size="9.5" font-weight="700" fill="#D97706">PK</text>
<text x="688.1" y="21.5" font-size="12" font-weight="700" fill="#1F2937">complaint_id</text>
<rect x="949.4" y="-33.5" width="289.7" height="67.0" rx="8" fill="#FFFBEB" stroke="#D97706" stroke-width="1.2"/>
<path d="M949.4,6.5 v-32 a8,8 0 0 1 8,-8 h273.7 a8,8 0 0 1 8,8 v32z" fill="#FDE68A" stroke="#D97706" stroke-width="1.2"/>
<text x="961.4" y="-15.5" font-size="13" font-weight="700" fill="#111827">fct_interaction</text>
<text x="961.4" y="-0.5" font-size="10.5" fill="#374151">per contact-centre contact · 666,619 rows</text>
<text x="961.4" y="21.5" font-size="9.5" font-weight="700" fill="#D97706">PK</text>
<text x="989.4" y="21.5" font-size="12" font-weight="700" fill="#1F2937">interaction_id</text>
<rect x="1309.1" y="-33.5" width="244.3" height="67.0" rx="8" fill="#FFFBEB" stroke="#D97706" stroke-width="1.2"/>
<path d="M1309.1,6.5 v-32 a8,8 0 0 1 8,-8 h228.3 a8,8 0 0 1 8,8 v32z" fill="#FDE68A" stroke="#D97706" stroke-width="1.2"/>
<text x="1321.1" y="-15.5" font-size="13" font-weight="700" fill="#111827">fct_campaign_send</text>
<text x="1321.1" y="-0.5" font-size="10.5" fill="#374151">per campaign send · 1,697,343 rows</text>
<text x="1321.1" y="21.5" font-size="9.5" font-weight="700" fill="#D97706">PK</text>
<text x="1349.1" y="21.5" font-size="12" font-weight="700" fill="#1F2937">send_id</text>
<rect x="408.0" y="-333.5" width="170.0" height="67.0" rx="8" fill="#F9FAFB" stroke="#6B7280" stroke-width="1.2"/>
<path d="M408.0,-293.5 v-32 a8,8 0 0 1 8,-8 h154.0 a8,8 0 0 1 8,8 v32z" fill="#E5E7EB" stroke="#6B7280" stroke-width="1.2"/>
<text x="420.0" y="-315.5" font-size="13" font-weight="700" fill="#111827">dim_product</text>
<text x="420.0" y="-300.5" font-size="10.5" fill="#374151">400,000 rows</text>
<text x="420.0" y="-278.5" font-size="9.5" font-weight="700" fill="#6B7280">PK</text>
<text x="448.0" y="-278.5" font-size="12" font-weight="700" fill="#1F2937">product_sk</text>
<rect x="638.0" y="-333.5" width="170.0" height="67.0" rx="8" fill="#F9FAFB" stroke="#6B7280" stroke-width="1.2"/>
<path d="M638.0,-293.5 v-32 a8,8 0 0 1 8,-8 h154.0 a8,8 0 0 1 8,8 v32z" fill="#E5E7EB" stroke="#6B7280" stroke-width="1.2"/>
<text x="650.0" y="-315.5" font-size="13" font-weight="700" fill="#111827">dim_customer</text>
<text x="650.0" y="-300.5" font-size="10.5" fill="#374151">150,000 rows</text>
<text x="650.0" y="-278.5" font-size="9.5" font-weight="700" fill="#6B7280">PK</text>
<text x="678.0" y="-278.5" font-size="12" font-weight="700" fill="#1F2937">customer_sk</text>
<rect x="868.0" y="-333.5" width="170.0" height="67.0" rx="8" fill="#F9FAFB" stroke="#6B7280" stroke-width="1.2"/>
<path d="M868.0,-293.5 v-32 a8,8 0 0 1 8,-8 h154.0 a8,8 0 0 1 8,8 v32z" fill="#E5E7EB" stroke="#6B7280" stroke-width="1.2"/>
<text x="880.0" y="-315.5" font-size="13" font-weight="700" fill="#111827">dim_date</text>
<text x="880.0" y="-300.5" font-size="10.5" fill="#374151">2,557 rows</text>
<text x="880.0" y="-278.5" font-size="9.5" font-weight="700" fill="#6B7280">PK</text>
<text x="908.0" y="-278.5" font-size="12" font-weight="700" fill="#1F2937">date_key</text>
<rect x="160.1" y="266.5" width="170.0" height="67.0" rx="8" fill="#F9FAFB" stroke="#6B7280" stroke-width="1.2"/>
<path d="M160.1,306.5 v-32 a8,8 0 0 1 8,-8 h154.0 a8,8 0 0 1 8,8 v32z" fill="#E5E7EB" stroke="#6B7280" stroke-width="1.2"/>
<text x="172.1" y="284.5" font-size="13" font-weight="700" fill="#111827">dim_country</text>
<text x="172.1" y="299.5" font-size="10.5" fill="#374151">6 rows</text>
<text x="172.1" y="321.5" font-size="9.5" font-weight="700" fill="#6B7280">PK</text>
<text x="200.1" y="321.5" font-size="12" font-weight="700" fill="#1F2937">country_code</text>
<rect x="390.1" y="266.5" width="170.0" height="67.0" rx="8" fill="#F0F9FF" stroke="#0284C7" stroke-width="1.2"/>
<path d="M390.1,306.5 v-32 a8,8 0 0 1 8,-8 h154.0 a8,8 0 0 1 8,8 v32z" fill="#BAE6FD" stroke="#0284C7" stroke-width="1.2"/>
<text x="402.1" y="284.5" font-size="13" font-weight="700" fill="#111827">dim_merchant</text>
<text x="402.1" y="299.5" font-size="10.5" fill="#374151">24 rows</text>
<text x="402.1" y="321.5" font-size="9.5" font-weight="700" fill="#0284C7">PK</text>
<text x="430.1" y="321.5" font-size="12" font-weight="700" fill="#1F2937">merchant_id</text>
<rect x="620.1" y="266.5" width="170.0" height="67.0" rx="8" fill="#F9FAFB" stroke="#6B7280" stroke-width="1.2"/>
<path d="M620.1,306.5 v-32 a8,8 0 0 1 8,-8 h154.0 a8,8 0 0 1 8,8 v32z" fill="#E5E7EB" stroke="#6B7280" stroke-width="1.2"/>
<text x="632.1" y="284.5" font-size="13" font-weight="700" fill="#111827">dim_branch</text>
<text x="632.1" y="299.5" font-size="10.5" fill="#374151">350 rows</text>
<text x="632.1" y="321.5" font-size="9.5" font-weight="700" fill="#6B7280">PK</text>
<text x="660.1" y="321.5" font-size="12" font-weight="700" fill="#1F2937">branch_id</text>
<rect x="850.1" y="266.5" width="170.0" height="67.0" rx="8" fill="#F9FAFB" stroke="#6B7280" stroke-width="1.2"/>
<path d="M850.1,306.5 v-32 a8,8 0 0 1 8,-8 h154.0 a8,8 0 0 1 8,8 v32z" fill="#E5E7EB" stroke="#6B7280" stroke-width="1.2"/>
<text x="862.1" y="284.5" font-size="13" font-weight="700" fill="#111827">dim_agent</text>
<text x="862.1" y="299.5" font-size="10.5" fill="#374151">1,200 rows</text>
<text x="862.1" y="321.5" font-size="9.5" font-weight="700" fill="#6B7280">PK</text>
<text x="890.1" y="321.5" font-size="12" font-weight="700" fill="#1F2937">agent_id</text>
<rect x="1291.0" y="266.5" width="170.0" height="67.0" rx="8" fill="#F0F9FF" stroke="#0284C7" stroke-width="1.2"/>
<path d="M1291.0,306.5 v-32 a8,8 0 0 1 8,-8 h154.0 a8,8 0 0 1 8,8 v32z" fill="#BAE6FD" stroke="#0284C7" stroke-width="1.2"/>
<text x="1303.0" y="284.5" font-size="13" font-weight="700" fill="#111827">dim_campaign</text>
<text x="1303.0" y="299.5" font-size="10.5" fill="#374151">200 rows</text>
<text x="1303.0" y="321.5" font-size="9.5" font-weight="700" fill="#0284C7">PK</text>
<text x="1331.0" y="321.5" font-size="12" font-weight="700" fill="#1F2937">campaign_id</text>
<rect x="0.0" y="349.5" width="22" height="13" rx="3" fill="#FDE68A" stroke="#D97706" stroke-width="1.2"/>
<text x="30.0" y="360.5" font-size="11" fill="#374151">Fact</text>
<rect x="0.0" y="369.5" width="22" height="13" rx="3" fill="#BAE6FD" stroke="#0284C7" stroke-width="1.2"/>
<text x="30.0" y="380.5" font-size="11" fill="#374151">Dimension</text>
<rect x="0.0" y="389.5" width="22" height="13" rx="3" fill="#E5E7EB" stroke="#6B7280" stroke-width="1.2"/>
<text x="30.0" y="400.5" font-size="11" fill="#374151">Conformed dimension (shared by 2+ facts)</text>
<line x1="0.0" y1="416.5" x2="22.0" y2="416.5" stroke="#94A3B8"/>
<text x="30.0" y="420.5" font-size="11" fill="#374151">N · 1: many rows to one; label = join key(s)</text>
</svg>
